<svg width="118" height="16" viewBox="0 0 118 16" fill="none" xmlns="http://www.w3.org/2000/svg">
<path d="M0.314453 8.01113C0.314453 6.46824 0.64825 5.09597 1.31584 3.8943C1.98344 2.67779 2.91065 1.73574 4.09748 1.06815C5.29915 0.38572 6.65659 0.0445057 8.16981 0.0445057C10.0242 0.0445057 11.6116 0.534074 12.932 1.51321C14.2523 2.49235 15.135 3.82754 15.5801 5.51878H11.3965C11.085 4.86602 10.6399 4.36903 10.0613 4.02782C9.49758 3.6866 8.85224 3.51599 8.1253 3.51599C6.9533 3.51599 6.00384 3.92397 5.2769 4.73992C4.54997 5.55586 4.1865 6.64627 4.1865 8.01113C4.1865 9.37598 4.54997 10.4664 5.2769 11.2823C6.00384 12.0983 6.9533 12.5063 8.1253 12.5063C8.85224 12.5063 9.49758 12.3357 10.0613 11.9944C10.6399 11.6532 11.085 11.1562 11.3965 10.5035H15.5801C15.135 12.1947 14.2523 13.5299 12.932 14.509C11.6116 15.4733 10.0242 15.9555 8.16981 15.9555C6.65659 15.9555 5.29915 15.6217 4.09748 14.9541C2.91065 14.2717 1.98344 13.3296 1.31584 12.128C0.64825 10.9263 0.314453 9.55401 0.314453 8.01113Z" fill="white"/>
<path d="M25.2985 16C23.8298 16 22.4797 15.6588 21.2484 14.9764C20.0319 14.2939 19.0602 13.3445 18.3332 12.128C17.6211 10.8966 17.2651 9.51692 17.2651 7.98887C17.2651 6.46082 17.6211 5.08855 18.3332 3.87204C19.0602 2.65554 20.0319 1.70607 21.2484 1.02364C22.4797 0.341215 23.8298 0 25.2985 0C26.7672 0 28.1098 0.341215 29.3263 1.02364C30.5576 1.70607 31.5219 2.65554 32.2192 3.87204C32.9313 5.08855 33.2873 6.46082 33.2873 7.98887C33.2873 9.51692 32.9313 10.8966 32.2192 12.128C31.5071 13.3445 30.5428 14.2939 29.3263 14.9764C28.1098 15.6588 26.7672 16 25.2985 16ZM25.2985 12.5285C26.5446 12.5285 27.5386 12.1131 28.2804 11.2823C29.037 10.4516 29.4153 9.35373 29.4153 7.98887C29.4153 6.60918 29.037 5.51136 28.2804 4.69541C27.5386 3.86463 26.5446 3.44923 25.2985 3.44923C24.0374 3.44923 23.0286 3.85721 22.272 4.67316C21.5303 5.4891 21.1594 6.59434 21.1594 7.98887C21.1594 9.36857 21.5303 10.4738 22.272 11.3046C23.0286 12.1205 24.0374 12.5285 25.2985 12.5285Z" fill="white"/>
<path d="M56.9008 0.222531L52.8285 15.8442H48.2221L45.7298 5.56328L43.1484 15.8442H38.542L34.581 0.222531H38.6533L40.9009 11.5939L43.6825 0.222531H47.8661L50.5365 11.5939L52.8063 0.222531H56.9008Z" fill="white"/>
<path d="M66.1973 16C64.7286 16 63.3785 15.6588 62.1472 14.9764C60.9307 14.2939 59.959 13.3445 59.232 12.128C58.5199 10.8966 58.1639 9.51692 58.1639 7.98887C58.1639 6.46082 58.5199 5.08855 59.232 3.87204C59.959 2.65554 60.9307 1.70607 62.1472 1.02364C63.3785 0.341215 64.7286 0 66.1973 0C67.666 0 69.0086 0.341215 70.2251 1.02364C71.4564 1.70607 72.4207 2.65554 73.118 3.87204C73.8301 5.08855 74.1861 6.46082 74.1861 7.98887C74.1861 9.51692 73.8301 10.8966 73.118 12.128C72.4059 13.3445 71.4416 14.2939 70.2251 14.9764C69.0086 15.6588 67.666 16 66.1973 16ZM66.1973 12.5285C67.4434 12.5285 68.4374 12.1131 69.1792 11.2823C69.9358 10.4516 70.3141 9.35373 70.3141 7.98887C70.3141 6.60918 69.9358 5.51136 69.1792 4.69541C68.4374 3.86463 67.4434 3.44923 66.1973 3.44923C64.9363 3.44923 63.9274 3.85721 63.1708 4.67316C62.4291 5.4891 62.0582 6.59434 62.0582 7.98887C62.0582 9.36857 62.4291 10.4738 63.1708 11.3046C63.9274 12.1205 64.9363 12.5285 66.1973 12.5285Z" fill="white"/>
<path d="M84.2698 15.8442L81.0208 9.94715H80.1084V15.8442H76.3031V0.222531H82.6898C83.9211 0.222531 84.967 0.437645 85.8275 0.867871C86.7028 1.2981 87.3555 1.89152 87.7858 2.64812C88.216 3.38989 88.4311 4.22068 88.4311 5.14047C88.4311 6.17895 88.1344 7.10617 87.541 7.92211C86.9624 8.73806 86.1019 9.31664 84.9596 9.65786L88.5646 15.8442H84.2698ZM80.1084 7.25452H82.4673C83.1645 7.25452 83.6838 7.08391 84.025 6.7427C84.381 6.40148 84.5591 5.91933 84.5591 5.29624C84.5591 4.70283 84.381 4.23551 84.025 3.8943C83.6838 3.55308 83.1645 3.38248 82.4673 3.38248H80.1084V7.25452Z" fill="white"/>
<path d="M99.8768 15.8442L94.6251 8.94576V15.8442H90.8198V0.222531H94.6251V7.07649L99.8323 0.222531H104.305L98.2524 7.87761L104.528 15.8442H99.8768Z" fill="white"/>
<path d="M111.988 16C110.846 16 109.822 15.8146 108.918 15.4437C108.013 15.0728 107.286 14.5239 106.737 13.7969C106.203 13.07 105.921 12.1947 105.891 11.1711H109.941C110.001 11.7497 110.201 12.1947 110.542 12.5063C110.883 12.803 111.328 12.9513 111.877 12.9513C112.441 12.9513 112.886 12.8252 113.212 12.573C113.539 12.306 113.702 11.9425 113.702 11.4826C113.702 11.0969 113.568 10.7779 113.301 10.5257C113.049 10.2735 112.73 10.0658 112.345 9.90264C111.974 9.73945 111.44 9.55401 110.742 9.34631C109.733 9.03477 108.91 8.72323 108.272 8.41168C107.634 8.10014 107.085 7.64024 106.625 7.03199C106.166 6.42374 105.936 5.63004 105.936 4.6509C105.936 3.19703 106.462 2.06212 107.516 1.24618C108.569 0.415392 109.941 0 111.632 0C113.353 0 114.74 0.415392 115.794 1.24618C116.847 2.06212 117.411 3.20445 117.485 4.67316H113.368C113.338 4.16875 113.153 3.77561 112.812 3.49374C112.471 3.19703 112.033 3.04868 111.499 3.04868C111.039 3.04868 110.668 3.17478 110.386 3.42698C110.104 3.66435 109.963 4.01298 109.963 4.47288C109.963 4.97728 110.201 5.37042 110.676 5.65229C111.15 5.93417 111.892 6.23829 112.901 6.56467C113.91 6.90589 114.726 7.23227 115.349 7.54381C115.987 7.85535 116.536 8.30783 116.995 8.90125C117.455 9.49467 117.685 10.2587 117.685 11.1933C117.685 12.0834 117.455 12.892 116.995 13.6189C116.55 14.3458 115.898 14.9244 115.037 15.3547C114.177 15.7849 113.16 16 111.988 16Z" fill="white"/>
</svg>
