<svg width="48" height="48" viewBox="0 0 48 48" fill="none" xmlns="http://www.w3.org/2000/svg">
<circle cx="24.5" cy="24" r="19" fill="white"/>
<path fill-rule="evenodd" clip-rule="evenodd" d="M48 24C48 37.2547 37.2547 48 24 48C10.7452 48 0 37.2547 0 24C0 10.7452 10.7452 0 24 0C37.2547 0 48 10.7452 48 24ZM12.012 16.8C12.012 15.48 13.08 14.4 14.4 14.4H33.6C34.92 14.4 36 15.48 36 16.8V31.2C36 32.52 34.92 33.6 33.6 33.6H14.4C13.08 33.6 12 32.52 12 31.2L12.012 16.8ZM24 25.2L14.4 19.1999V31.2H33.6V19.1999L24 25.2ZM24 22.8L14.4 16.8H33.6L24 22.8Z" fill="#252525"/>
</svg>
