<svg width="48" height="48" viewBox="0 0 48 48" fill="none" xmlns="http://www.w3.org/2000/svg">
<g clip-path="url(#clip0_810_2317)">
<path d="M24.5 48C37.7548 48 48.5 37.2548 48.5 24C48.5 10.7452 37.7548 0 24.5 0C11.2452 0 0.5 10.7452 0.5 24C0.5 37.2548 11.2452 48 24.5 48Z" fill="#252525"/>
<path d="M10.9815 23.4799L34.1216 14.5579C35.1956 14.1699 36.1336 14.8199 35.7856 16.4439L35.7875 16.4419L31.8475 35.0039C31.5555 36.3199 30.7736 36.6399 29.6796 36.0199L23.6796 31.5979L20.7855 34.3859C20.4655 34.7059 20.1955 34.9759 19.5755 34.9759L20.0015 28.8699L31.1215 18.8239C31.6056 18.3979 31.0135 18.1579 30.3755 18.5819L16.6336 27.2339L10.7095 25.3859C9.42355 24.9779 9.39555 24.0999 10.9815 23.4799Z" fill="white"/>
</g>
<defs>
<clipPath id="clip0_810_2317">
<rect width="48" height="48" fill="white"/>
</clipPath>
</defs>
</svg>
