<svg width="48" height="48" viewBox="0 0 48 48" fill="none" xmlns="http://www.w3.org/2000/svg">
<g clip-path="url(#clip0_810_2309)">
<circle cx="24" cy="24" r="24" fill="#252525"/>
<path d="M11.6985 35.9587L13.011 29.865C11.3241 27.2042 10.666 24.0193 11.1602 20.9079C11.6545 17.7964 13.2671 14.9722 15.6955 12.9651C18.1239 10.9581 21.2013 9.90611 24.3502 10.0066C27.499 10.1071 30.503 11.3531 32.7986 13.5109C35.0941 15.6687 36.5234 18.5899 36.8182 21.7266C37.1131 24.8632 36.2533 27.9997 34.4002 30.5475C32.547 33.0953 29.8279 34.8794 26.7529 35.565C23.6779 36.2505 20.4584 35.7905 17.6985 34.2712L11.6985 35.9587Z" fill="#25D366"/>
<path d="M11.6985 35.9587L13.011 29.865C11.3241 27.2042 10.666 24.0193 11.1602 20.9079C11.6545 17.7964 13.2671 14.9722 15.6955 12.9651C18.1239 10.9581 21.2013 9.90611 24.3502 10.0066C27.499 10.1071 30.503 11.3531 32.7986 13.5109C35.0941 15.6687 36.5234 18.5899 36.8182 21.7266C37.1131 24.8632 36.2533 27.9997 34.4002 30.5475C32.547 33.0953 29.8279 34.8794 26.7529 35.565C23.6779 36.2505 20.4584 35.7905 17.6985 34.2712L11.6985 35.9587Z" fill="#252525"/>
<path d="M11.6985 35.9587L13.011 29.865C11.3241 27.2042 10.666 24.0193 11.1602 20.9079C11.6545 17.7964 13.2671 14.9722 15.6955 12.9651C18.1239 10.9581 21.2013 9.90611 24.3502 10.0066C27.499 10.1071 30.503 11.3531 32.7986 13.5109C35.0941 15.6687 36.5234 18.5899 36.8182 21.7266C37.1131 24.8632 36.2533 27.9997 34.4002 30.5475C32.547 33.0953 29.8279 34.8794 26.7529 35.565C23.6779 36.2505 20.4584 35.7905 17.6985 34.2712L11.6985 35.9587Z" stroke="white" stroke-width="2"/>
<path d="M29.042 24.7088C28.7608 24.5213 28.4795 24.4276 28.1983 24.8026L27.0733 26.3026C26.792 26.4901 26.6045 26.5838 26.2295 26.3963C24.8233 25.6463 22.8545 24.8026 21.167 21.9901C21.0733 21.6151 21.2608 21.4276 21.4483 21.2401L22.292 19.9276C22.4795 19.7401 22.3858 19.5526 22.292 19.3651L21.167 16.6463C20.8858 15.8963 20.6045 15.9901 20.3233 15.9901H19.5733C19.3858 15.9901 19.0108 16.0838 18.6358 16.4588C16.5733 18.5213 17.417 21.4276 18.917 23.3026C19.1983 23.6776 21.0733 27.0526 25.1045 28.8338C28.1045 30.1463 28.7608 29.9588 29.6045 29.7713C30.6358 29.6776 31.667 28.8338 32.1358 27.9901C32.2295 27.7088 32.6983 26.4901 32.3233 26.3026" fill="white"/>
</g>
<defs>
<clipPath id="clip0_810_2309">
<rect width="48" height="48" fill="white"/>
</clipPath>
</defs>
</svg>
